<?xml version="1.0" encoding="UTF-8" standalone="no"?>
<!-- Created with Inkscape (http://www.inkscape.org/) -->

<svg
   xmlns:dc="http://purl.org/dc/elements/1.1/"
   xmlns:cc="http://creativecommons.org/ns#"
   xmlns:rdf="http://www.w3.org/1999/02/22-rdf-syntax-ns#"
   xmlns:svg="http://www.w3.org/2000/svg"
   xmlns="http://www.w3.org/2000/svg"
   xmlns:xlink="http://www.w3.org/1999/xlink"
   xmlns:sodipodi="http://sodipodi.sourceforge.net/DTD/sodipodi-0.dtd"
   xmlns:inkscape="http://www.inkscape.org/namespaces/inkscape"
   width="1920"
   height="1080"
   viewBox="0 0 507.99999 285.75001"
   version="1.1"
   id="svg907"
   inkscape:version="0.92.5 (2060ec1f9f, 2020-04-08)"
   sodipodi:docname="Xmonad-01.svg">
  <defs
     id="defs901">
    <linearGradient
       inkscape:collect="always"
       id="linearGradient1078">
      <stop
         style="stop-color:#e54c18;stop-opacity:1"
         offset="0"
         id="stop1074" />
      <stop
         style="stop-color:#fec350;stop-opacity:1"
         offset="1"
         id="stop1076" />
    </linearGradient>
    <linearGradient
       inkscape:collect="always"
       xlink:href="#linearGradient1078"
       id="linearGradient2064"
       gradientUnits="userSpaceOnUse"
       gradientTransform="matrix(3.668462,0,0,4.4296898,-363.01005,-953.7068)"
       x1="124.35416"
       y1="258.63535"
       x2="152.13541"
       y2="240.11459" />
  </defs>
  <sodipodi:namedview
     id="base"
     pagecolor="#ffffff"
     bordercolor="#666666"
     borderopacity="1.0"
     inkscape:pageopacity="0.0"
     inkscape:pageshadow="2"
     inkscape:zoom="0.47851767"
     inkscape:cx="797.8994"
     inkscape:cy="339.52201"
     inkscape:document-units="px"
     inkscape:current-layer="layer1"
     showgrid="false"
     units="px"
     inkscape:window-width="1920"
     inkscape:window-height="1045"
     inkscape:window-x="0"
     inkscape:window-y="0"
     inkscape:window-maximized="1"
     inkscape:pagecheckerboard="true">
    <inkscape:grid
       type="xygrid"
       id="grid833" />
  </sodipodi:namedview>
  <metadata
     id="metadata904">
    <rdf:RDF>
      <cc:Work
         rdf:about="">
        <dc:format>image/svg+xml</dc:format>
        <dc:type
           rdf:resource="http://purl.org/dc/dcmitype/StillImage" />
        <dc:title></dc:title>
      </cc:Work>
    </rdf:RDF>
  </metadata>
  <g
     inkscape:groupmode="layer"
     id="layer2"
     inkscape:label="Calque 2"
     style="display:inline" />
  <g
     inkscape:label="Calque 1"
     inkscape:groupmode="layer"
     id="layer1"
     transform="translate(0,-11.249992)">
    <flowRoot
       xml:space="preserve"
       id="flowRoot914"
       style="font-style:normal;font-weight:normal;font-size:40px;line-height:1.25;font-family:sans-serif;letter-spacing:0px;word-spacing:0px;fill:#000000;fill-opacity:1;stroke:none"><flowRegion
         id="flowRegion916"><rect
           id="rect918"
           width="65"
           height="50"
           x="425"
           y="685" /></flowRegion><flowPara
         id="flowPara920" /></flowRoot>    <path
       style="fill:url(#linearGradient2064);fill-opacity:1;stroke:none;stroke-width:2.45844483;stroke-linecap:square;stroke-linejoin:miter;stroke-miterlimit:4;stroke-dasharray:none;stroke-opacity:1;paint-order:fill markers stroke"
       d="m 93.178448,109.92637 24.265592,41.02057 -24.265592,41.02058 c 15.529872,0 19.412022,-8.20411 19.412022,-8.20411 l 19.41279,-32.81647 -17.47152,-29.30063 c 0,0 -5.82342,-11.7199 -21.353292,-11.71994 z m 19.412022,0 24.2656,41.02057 -24.2656,41.02058 c 15.5298,3e-5 19.41279,-8.20411 19.41279,-8.20411 l 12.1328,-20.50993 12.13203,20.50993 c 0,0 3.88225,8.20421 19.41202,8.20411 l -24.26484,-41.02058 -7.25076,-12.25812 -0.0292,0.0484 -10.19076,-17.09094 c 0,0 -5.82426,-11.7199 -21.35407,-11.71994 z m 63.08964,0 c -15.52977,4e-5 -21.35254,11.71994 -21.35254,11.71994 l -7.72743,12.95852 7.24154,12.23967 z m 19.41279,0 c -15.52982,4e-5 -21.3533,11.71994 -21.3533,11.71994 l -17.47151,29.30063 7.76512,12.89239 z"
       id="path2059"
       inkscape:connector-curvature="0" />
    <path
       style="color:#000000;font-style:normal;font-variant:normal;font-weight:normal;font-stretch:normal;font-size:medium;line-height:normal;font-family:sans-serif;font-variant-ligatures:normal;font-variant-position:normal;font-variant-caps:normal;font-variant-numeric:normal;font-variant-alternates:normal;font-feature-settings:normal;text-indent:0;text-align:start;text-decoration:none;text-decoration-line:none;text-decoration-style:solid;text-decoration-color:#000000;letter-spacing:normal;word-spacing:normal;text-transform:none;writing-mode:lr-tb;direction:ltr;text-orientation:mixed;dominant-baseline:auto;baseline-shift:baseline;text-anchor:start;white-space:normal;shape-padding:0;clip-rule:nonzero;display:inline;overflow:visible;visibility:visible;opacity:1;isolation:auto;mix-blend-mode:normal;color-interpolation:sRGB;color-interpolation-filters:linearRGB;solid-color:#000000;solid-opacity:1;vector-effect:none;fill:#000000;fill-opacity:1;fill-rule:nonzero;stroke:none;stroke-width:3.06428432;stroke-linecap:square;stroke-linejoin:miter;stroke-miterlimit:4;stroke-dasharray:none;stroke-dashoffset:0;stroke-opacity:1;paint-order:markers stroke fill;color-rendering:auto;image-rendering:auto;shape-rendering:auto;text-rendering:auto;enable-background:accumulate"
       d="m 174.2124,132.29137 c -3.19866,0 -3.19866,2.93571 -3.19866,2.93571 v 38.16382 h 9.59584 v -29.35676 c 0,0 0,-2.93587 3.19824,-2.93587 h 19.19128 c 3.19862,0 3.19862,2.93587 3.19862,2.93587 v 29.35676 h 9.59556 v -38.16382 c 0,0 0,-2.93571 -3.1988,-2.93571 z m 47.97785,0 v 41.09953 h 44.77939 v -41.09953 z m 51.17629,0 v 41.09953 h 9.59574 v -32.29263 c 0,0 19.19113,1.7e-4 22.38984,1.7e-4 3.19842,0 3.19842,2.9357 3.19842,2.9357 v 29.35676 h 9.59545 v -38.16382 c 0,0 0,-2.93571 -3.19852,-2.93571 z m 54.375,0 c -3.2429,0 -3.19823,2.93571 -3.19823,2.93571 v 5.87119 h 31.98518 c 3.19851,0 3.19851,1.17442 3.19851,2.93587 v 5.87135 h -31.98546 c -3.19823,0 -3.19823,2.93561 -3.19823,2.93561 v 17.61408 c 0,0 0,2.93572 3.19823,2.93572 h 41.58116 v -38.16382 c 0,0 0,-2.93571 -3.19867,-2.93571 z m 63.9705,41.09953 h 25.58823 c 3.19871,0 3.19871,-2.93572 3.19871,-2.93572 v -34.64085 c 0,0 0,-3.52296 -3.19871,-3.52296 h -41.58083 v 41.09953 h 9.59584 c 0,-11.74266 0,-20.5498 -1.2e-4,-32.29263 h 22.38973 c 3.19873,1.7e-4 3.19873,2.93587 3.19873,2.93587 v 17.6141 c 0,0 0,2.9357 -3.19873,2.9357 H 391.71204 Z M 231.78582,141.09827 h 25.58829 v 23.48567 h -25.58829 z m -42.86028,8.80722 c 0,2.93561 0,23.48541 0,23.48541 h 8.95582 c 0,0 0,-20.5498 0,-23.48541 0,-2.93556 -3.19861,-2.93556 -3.19861,-2.93556 -1.91897,0 -1.91897,0 -2.55862,0 0,0 -3.19859,0 -3.19859,2.93556 z m 148.41173,8.80704 H 359.727 v 5.87141 h -22.38973 c -3.19859,0 -3.19859,-1.46799 -3.19859,-2.9357 0,-1.46787 0,-2.93571 3.19859,-2.93571 z"
       id="path1001-9"
       inkscape:connector-curvature="0"
       sodipodi:nodetypes="sccccccccccssccccccccczccccscscczccscccccsscsccsccccccczccccccczccscczccczzc" />
  </g>
</svg>
